<svg width="72" height="100" viewBox="0 0 72 100" fill="none" xmlns="http://www.w3.org/2000/svg">
<mask id="path-1-inside-1_800_1091" fill="white">
<path d="M14.7621 99.9998C14.6692 99.9998 14.5809 99.9791 14.4879 99.9763C14.4039 99.9791 14.3242 99.9998 14.2389 99.9998H14.7621Z"/>
</mask>
<path d="M14.4879 99.9763L14.5467 97.9772L14.4848 97.9754L14.4228 97.9774L14.4879 99.9763ZM14.7621 99.9998V97.9998C14.8123 97.9998 14.8496 98.0025 14.8665 98.004C14.8809 98.0053 14.8879 98.0063 14.8668 98.0037C14.8551 98.0023 14.8073 97.9963 14.7598 97.9915C14.7076 97.9861 14.6336 97.9797 14.5467 97.9772L14.4879 99.9763L14.4291 101.975C14.3887 101.974 14.3607 101.971 14.354 101.971C14.3521 101.971 14.3496 101.97 14.3833 101.974C14.4074 101.977 14.4598 101.984 14.5198 101.989C14.5823 101.994 14.6655 102 14.7621 102V99.9998ZM14.4879 99.9763L14.4228 97.9774C14.3314 97.9804 14.2543 97.9878 14.2014 97.9937C14.154 97.9991 14.1056 98.0058 14.0978 98.0069C14.0793 98.0093 14.0915 98.0075 14.112 98.0055C14.1352 98.0033 14.1801 97.9998 14.2389 97.9998V99.9998V102C14.3404 102 14.4272 101.994 14.492 101.987C14.554 101.982 14.6074 101.974 14.6301 101.971C14.6633 101.967 14.656 101.968 14.6498 101.969C14.6381 101.97 14.6025 101.974 14.553 101.975L14.4879 99.9763ZM14.2389 99.9998V102H14.7621V99.9998V97.9998H14.2389V99.9998Z" fill="#F76F0B" mask="url(#path-1-inside-1_800_1091)"/>
<mask id="path-3-inside-2_800_1091" fill="white">
<path d="M49.0702 100C49.0527 100 49.0347 99.9941 49.0171 99.9941C48.9964 99.9941 48.9759 100 48.9552 100H49.0702Z"/>
</mask>
<path d="M49.0702 100V98C49.1233 98 49.1699 98.0022 49.2084 98.005C49.2467 98.0078 49.279 98.0113 49.303 98.0143C49.3269 98.0172 49.3457 98.02 49.356 98.0216C49.3652 98.0231 49.3728 98.0243 49.3689 98.0237C49.3684 98.0236 49.3563 98.0216 49.3426 98.0195C49.3279 98.0172 49.3047 98.0138 49.2764 98.0102C49.2479 98.0067 49.2112 98.0027 49.1685 97.9996C49.1256 97.9965 49.0746 97.9941 49.0171 97.9941V99.9941V101.994C48.964 101.994 48.9174 101.992 48.879 101.989C48.8407 101.986 48.8084 101.983 48.7843 101.98C48.7605 101.977 48.7417 101.974 48.7314 101.973C48.7221 101.971 48.7145 101.97 48.7184 101.97C48.719 101.971 48.731 101.973 48.7447 101.975C48.7595 101.977 48.7827 101.98 48.811 101.984C48.8395 101.987 48.8762 101.991 48.9189 101.995C48.9618 101.998 49.0128 102 49.0702 102V100ZM49.0171 99.9941V97.9941C48.9194 97.9941 48.8397 98.001 48.7898 98.0063C48.7644 98.009 48.7434 98.0117 48.7297 98.0135C48.717 98.0152 48.7058 98.0168 48.7047 98.017C48.7006 98.0176 48.7067 98.0167 48.7143 98.0157C48.7228 98.0145 48.7386 98.0125 48.7589 98.0103C48.7985 98.0061 48.8678 98 48.9552 98V100V102C49.0529 102 49.1326 101.993 49.1825 101.988C49.2079 101.985 49.2289 101.982 49.2426 101.981C49.2553 101.979 49.2665 101.977 49.2677 101.977C49.2717 101.977 49.2656 101.977 49.258 101.978C49.2495 101.98 49.2337 101.982 49.2134 101.984C49.1739 101.988 49.1045 101.994 49.0171 101.994V99.9941ZM48.9552 100V102H49.0702V100V98H48.9552V100Z" fill="#F76F0B" mask="url(#path-3-inside-2_800_1091)"/>
<path d="M55.1973 1.15039C55.4743 1.32895 55.8263 1.65885 56.2051 2.17188C56.9584 3.19226 57.7206 4.80666 58.1738 6.92188L58.3428 7.71191H66.085L66.3574 7.14258C66.3577 7.14197 66.3578 7.14088 66.3584 7.13965C66.3598 7.13674 66.3623 7.13214 66.3652 7.12598C66.3714 7.1133 66.3812 7.0938 66.3936 7.06836C66.4184 7.01737 66.4558 6.94115 66.5039 6.84473C66.6001 6.65181 66.7395 6.376 66.9121 6.04785C67.2587 5.3888 67.7331 4.52746 68.252 3.70117C68.7793 2.8614 69.3186 2.11305 69.7891 1.64258C69.8817 1.54996 69.9635 1.47764 70.0332 1.4209C70.0644 1.6053 70.0838 1.85431 70.082 2.1748C70.0774 3.01519 69.9387 4.11355 69.7588 5.33203C69.5834 6.51993 69.3684 7.8219 69.2412 8.96484C69.118 10.0721 69.052 11.2158 69.2598 12.0488V12.0498C69.5983 13.4007 70.3606 15.7477 70.6689 18.4844C70.9764 21.214 70.802 24.1438 69.3682 26.5811L69.2627 26.7588L69.2373 26.9639C68.9142 29.5545 68.8328 31.5867 68.833 32.9795C68.8331 33.6758 68.854 34.2123 68.875 34.5791C68.8855 34.7625 68.8961 34.9037 68.9043 35.001C68.908 35.0452 68.9106 35.0805 68.9131 35.1064C68.9158 39.4664 69.2218 47.0421 67.9707 54.5859C66.71 62.1871 63.9101 69.469 57.9053 73.3721L57.5625 73.5947L57.4736 73.9932L52.5586 96.1084C52.1884 97.7774 50.7203 98.967 49.0127 98.9932C47.0182 98.9631 45.4039 97.3575 45.376 95.3594L45.123 77.0615L45.1094 76.0762H19.6025L19.5625 77.0342L18.8311 94.5947C18.7314 96.9651 16.8408 98.8445 14.4893 98.9736C12.4357 98.8496 10.7119 97.3924 10.2734 95.3896L10.2344 95.1924L10.2324 95.1826C10.231 95.1741 10.2294 95.1613 10.2266 95.1445C10.2208 95.1109 10.2114 95.0606 10.2002 94.9951C10.1778 94.8641 10.145 94.6709 10.1025 94.4229C10.0176 93.9264 9.8954 93.2093 9.74414 92.3271C9.44158 90.5626 9.02486 88.1368 8.56836 85.4922C7.65563 80.2045 6.58208 74.036 5.94434 70.5283L5.86523 70.0625C5.68661 68.9481 5.55985 67.6362 5.52734 66.2129L5.4707 63.7422L3.79297 65.5576C3.21144 66.1869 2.41036 66.2734 1.90918 65.9238C1.39032 65.5618 0.662741 64.371 1.1709 61.3203C1.93438 56.7401 3.90447 53.1467 6.80078 50.6963C9.69708 48.246 13.5962 46.874 18.334 46.874H18.4238L18.5127 46.8574C24.0647 45.8472 30.7913 46.7029 36.9746 47.1709C40.0198 47.4014 42.9406 47.5347 45.4209 47.252C47.8846 46.9711 50.1042 46.2593 51.5547 44.627C52.3433 43.7401 52.8915 42.4306 53.292 41.0244C53.6998 39.5928 53.9868 37.9447 54.1895 36.2852C54.5949 32.964 54.6748 29.495 54.6748 27.4072C54.6748 25.1565 54.1447 23.745 53.7441 22.584C53.3623 21.4775 53.1164 20.6512 53.3818 19.3271V19.3262C53.6934 17.7675 54.3161 15.5116 54.8428 13.4453C55.1019 12.4289 55.3379 11.4585 55.4883 10.6758C55.5632 10.2858 55.6211 9.92112 55.6484 9.60938C55.6716 9.34531 55.6909 8.95899 55.5791 8.62402L55.5781 8.62305C55.5338 8.49009 55.4239 7.93192 55.3066 7.05664C55.1949 6.22226 55.0883 5.19265 55.0303 4.18652C54.9716 3.17026 54.9653 2.2205 55.041 1.52734C55.06 1.35341 55.0827 1.21033 55.1064 1.0957C55.1342 1.11127 55.1645 1.12929 55.1973 1.15039Z" stroke="#F76F0B" stroke-width="2"/>
</svg>
