<svg width="24" height="24" viewBox="0 0 24 24" fill="none" xmlns="http://www.w3.org/2000/svg">
<path d="M14.8125 13.9688C14.295 12.9601 14.4375 11.6813 13.6275 10.8151C13.1788 10.3536 12.601 10.0385 11.97 9.91134C11.4308 9.7903 10.8707 9.79801 10.335 9.93384C9.4962 10.171 8.74856 10.6559 8.19 11.3251L8.025 11.5238C7.66875 11.9813 7.37625 12.4838 7.02375 12.9488C6.49778 13.612 5.74387 14.0558 4.90875 14.1938C3.9075 14.4038 2.625 14.2501 2.1375 15.3751C1.98468 15.7426 1.91922 16.1405 1.94625 16.5376C2.04375 18.9413 4.36125 20.8763 6.75375 20.3251C7.6875 20.1113 8.54625 19.5226 9.5175 19.4888C10.3907 19.524 11.2376 19.7977 11.9662 20.2801L12.1613 20.3926C13.2375 21.0301 14.3587 21.7876 15.6112 21.7201C17.9062 21.6001 19.0875 18.6976 17.8088 16.9013C16.995 15.7501 15.4537 15.2213 14.8125 13.9688Z" fill="#F8730C"/>
<path d="M21.1313 9.25116C20.8528 9.12576 20.5523 9.05646 20.2471 9.04721C19.9418 9.03796 19.6377 9.08894 19.3522 9.19724C19.0666 9.30555 18.8052 9.46905 18.5828 9.67841C18.3605 9.88777 18.1815 10.1389 18.0563 10.4174L17.3363 11.9999C17.2109 12.2784 17.1417 12.5788 17.1325 12.8841C17.1232 13.1893 17.1742 13.4934 17.2825 13.7789C17.3908 14.0645 17.5543 14.3259 17.7636 14.5483C17.973 14.7706 18.224 14.9496 18.5025 15.0749C19.0649 15.328 19.7049 15.3474 20.2816 15.1286C20.8582 14.9099 21.3244 14.4711 21.5775 13.9087L22.2975 12.3112C22.5461 11.7504 22.563 11.1142 22.3445 10.541C22.1261 9.96785 21.69 9.50424 21.1313 9.25116Z" fill="#F8730C"/>
<path d="M17.43 8.48991L18.15 6.89241C18.2753 6.61392 18.3446 6.31348 18.3538 6.00823C18.363 5.70299 18.312 5.39891 18.2037 5.11337C18.0954 4.82783 17.932 4.56642 17.7226 4.34406C17.5133 4.12169 17.2622 3.94274 16.9837 3.81741C16.7053 3.69208 16.4048 3.62283 16.0996 3.61361C15.7943 3.60439 15.4902 3.65538 15.2047 3.76368C14.9192 3.87198 14.6578 4.03545 14.4354 4.24478C14.213 4.4541 14.0341 4.70517 13.9087 4.98366L13.1887 6.58116C12.9356 7.14358 12.9163 7.78352 13.135 8.3602C13.3537 8.93687 13.7926 9.40304 14.355 9.65616C14.9174 9.90928 15.5574 9.9286 16.134 9.70989C16.7107 9.49117 17.1769 9.05233 17.43 8.48991Z" fill="#F8730C"/>
<path d="M4.12499 12.8249C4.73955 12.778 5.31032 12.4889 5.71184 12.0213C6.11336 11.5537 6.31277 10.9458 6.26624 10.3312L6.13124 8.58368C6.05739 7.99094 5.75824 7.44937 5.29583 7.07126C4.83342 6.69315 4.24323 6.50752 3.64763 6.55285C3.05204 6.59819 2.49674 6.87101 2.09688 7.31475C1.69702 7.75848 1.48329 8.33909 1.49999 8.93618L1.635 10.6837C1.68197 11.2975 1.97049 11.8677 2.43729 12.2691C2.90408 12.6705 3.51103 12.8704 4.12499 12.8249Z" fill="#F8730C"/>
<path d="M9.45376 8.66621C10.0683 8.61926 10.6391 8.3302 11.0406 7.86258C11.4421 7.39496 11.6415 6.78705 11.595 6.17246L11.46 4.42496C11.4369 4.12037 11.354 3.82333 11.216 3.55079C11.0781 3.27825 10.8878 3.03554 10.6561 2.83654C10.4243 2.63753 10.1556 2.48611 9.86539 2.39094C9.57513 2.29576 9.26897 2.25869 8.96439 2.28183C8.6598 2.30498 8.36276 2.38789 8.09022 2.52583C7.81767 2.66378 7.57497 2.85405 7.37596 3.08579C7.17696 3.31753 7.02554 3.5862 6.93037 3.87646C6.83519 4.16671 6.79812 4.47287 6.82126 4.77746L6.95626 6.52496C6.9795 6.8296 7.06255 7.12667 7.20067 7.3992C7.33879 7.67172 7.52927 7.91435 7.76122 8.11321C7.99317 8.31207 8.26204 8.46327 8.55245 8.55816C8.84287 8.65305 9.14914 8.68976 9.45376 8.66621Z" fill="#F8730C"/>
<g opacity="0.15">
<path d="M21.1313 9.25116C20.8528 9.12576 20.5523 9.05646 20.2471 9.04721C19.9418 9.03796 19.6377 9.08894 19.3522 9.19724C19.0666 9.30555 18.8052 9.46905 18.5828 9.67841C18.3605 9.88777 18.1815 10.1389 18.0563 10.4174L17.3363 11.9999C17.2109 12.2784 17.1417 12.5788 17.1325 12.8841C17.1232 13.1893 17.1742 13.4934 17.2825 13.7789C17.3908 14.0645 17.5543 14.3259 17.7636 14.5483C17.973 14.7706 18.224 14.9496 18.5025 15.0749C19.0649 15.328 19.7049 15.3474 20.2816 15.1286C20.8582 14.9099 21.3244 14.4711 21.5775 13.9087L22.2975 12.3112C22.5461 11.7504 22.563 11.1142 22.3445 10.541C22.1261 9.96785 21.69 9.50424 21.1313 9.25116Z" fill="#F8730C"/>
</g>
<g opacity="0.15">
<path d="M18.15 6.89241C18.4031 6.32998 18.4224 5.69005 18.2037 5.11337C17.985 4.5367 17.5462 4.07053 16.9837 3.81741C16.7053 3.69208 16.4048 3.62283 16.0996 3.61361C15.7943 3.60439 15.4902 3.65538 15.2047 3.76368C14.628 3.9824 14.1619 4.42123 13.9087 4.98366L13.1887 6.58116C12.9356 7.14358 12.9163 7.78352 13.135 8.3602C13.3537 8.93687 13.7926 9.40304 14.355 9.65616C14.9174 9.90928 15.5574 9.9286 16.134 9.70989C16.7107 9.49117 17.1769 9.05233 17.43 8.48991L18.15 6.89241Z" fill="#F8730C"/>
</g>
</svg>
