<svg width="32" height="32" viewBox="0 0 32 32" fill="none" xmlns="http://www.w3.org/2000/svg">
<path d="M22.0001 8.9999C21.9063 9.09286 21.8319 9.20346 21.7812 9.32532C21.7304 9.44718 21.7043 9.57789 21.7043 9.7099C21.7043 9.84191 21.7304 9.97262 21.7812 10.0945C21.8319 10.2163 21.9063 10.3269 22.0001 10.4199L26.6001 15.0199H3.06006C2.79484 15.0199 2.54049 15.1253 2.35295 15.3128C2.16542 15.5003 2.06006 15.7547 2.06006 16.0199C2.06006 16.2851 2.16542 16.5395 2.35295 16.727C2.54049 16.9145 2.79484 17.0199 3.06006 17.0199H26.5801L22.0001 21.5899C21.8138 21.7773 21.7093 22.0307 21.7093 22.2949C21.7093 22.5591 21.8138 22.8125 22.0001 22.9999C22.1874 23.1862 22.4409 23.2907 22.7051 23.2907C22.9692 23.2907 23.2227 23.1862 23.4101 22.9999L29.7701 16.6399C29.8557 16.5578 29.9238 16.4592 29.9703 16.3501C30.0168 16.2409 30.0408 16.1235 30.0408 16.0049C30.0408 15.8863 30.0168 15.7689 29.9703 15.6597C29.9238 15.5506 29.8557 15.452 29.7701 15.3699L23.4201 8.9999C23.3271 8.90617 23.2165 8.83178 23.0946 8.78101C22.9728 8.73024 22.8421 8.7041 22.7101 8.7041C22.578 8.7041 22.4473 8.73024 22.3255 8.78101C22.2036 8.83178 22.093 8.90617 22.0001 8.9999Z" fill="#F76F0B"/>
</svg>
