<svg width="21" height="24" viewBox="0 0 21 24" fill="none" xmlns="http://www.w3.org/2000/svg">
<g clip-path="url(#clip0_800_1414)">
<path d="M2.49422 21.8903C2.56744 23.0547 3.57328 23.9997 4.73953 23.9997H16.2614C17.4277 23.9997 18.4331 23.0547 18.5067 21.8903L19.5 5.9997H1.5L2.49422 21.8903ZM20.25 1.4997H15L14.4572 0.414074C14.3302 0.160012 14.0705 -0.000488281 13.7864 -0.000488281H7.21406C6.92995 -0.000488281 6.67031 0.160012 6.54328 0.414074L6 1.4997H0.75C0.335812 1.4997 0 1.83542 0 2.2497V3.7497C0 4.16389 0.335812 4.4997 0.75 4.4997H20.25C20.6643 4.4997 21 4.16389 21 3.7497V2.2497C21 1.83532 20.6625 1.4997 20.25 1.4997Z" fill="#F8730C"/>
</g>
<defs>
<clipPath id="clip0_800_1414">
<rect width="21" height="24" fill="white"/>
</clipPath>
</defs>
</svg>
