<svg width="28" height="28" viewBox="0 0 28 28" fill="none" xmlns="http://www.w3.org/2000/svg">
<path d="M2.33337 14C2.33337 9.60024 2.33337 7.40036 3.70021 6.03352C5.06705 4.66669 7.26693 4.66669 11.6667 4.66669H16.3334C20.7331 4.66669 22.9331 4.66669 24.2998 6.03352C25.6667 7.40036 25.6667 9.60024 25.6667 14V16.3334C25.6667 20.7331 25.6667 22.9331 24.2998 24.2998C22.9331 25.6667 20.7331 25.6667 16.3334 25.6667H11.6667C7.26693 25.6667 5.06705 25.6667 3.70021 24.2998C2.33337 22.9331 2.33337 20.7331 2.33337 16.3334V14Z" stroke="white" stroke-width="2"/>
<path d="M8.16663 4.66669V2.91669" stroke="white" stroke-width="2" stroke-linecap="round"/>
<path d="M19.8334 4.66669V2.91669" stroke="white" stroke-width="2" stroke-linecap="round"/>
<path d="M2.91663 10.5H25.0833" stroke="white" stroke-width="2" stroke-linecap="round"/>
<path d="M21 19.8334C21 20.4777 20.4776 21 19.8333 21C19.1889 21 18.6666 20.4777 18.6666 19.8334C18.6666 19.189 19.1889 18.6667 19.8333 18.6667C20.4776 18.6667 21 19.189 21 19.8334Z" fill="white"/>
<path d="M21 15.1667C21 15.811 20.4776 16.3333 19.8333 16.3333C19.1889 16.3333 18.6666 15.811 18.6666 15.1667C18.6666 14.5223 19.1889 14 19.8333 14C20.4776 14 21 14.5223 21 15.1667Z" fill="white"/>
<path d="M15.1667 19.8334C15.1667 20.4777 14.6444 21 14 21C13.3557 21 12.8334 20.4777 12.8334 19.8334C12.8334 19.189 13.3557 18.6667 14 18.6667C14.6444 18.6667 15.1667 19.189 15.1667 19.8334Z" fill="white"/>
<path d="M15.1667 15.1667C15.1667 15.811 14.6444 16.3333 14 16.3333C13.3557 16.3333 12.8334 15.811 12.8334 15.1667C12.8334 14.5223 13.3557 14 14 14C14.6444 14 15.1667 14.5223 15.1667 15.1667Z" fill="white"/>
<path d="M9.33333 19.8334C9.33333 20.4777 8.81099 21 8.16667 21C7.52234 21 7 20.4777 7 19.8334C7 19.189 7.52234 18.6667 8.16667 18.6667C8.81099 18.6667 9.33333 19.189 9.33333 19.8334Z" fill="white"/>
<path d="M9.33333 15.1667C9.33333 15.811 8.81099 16.3333 8.16667 16.3333C7.52234 16.3333 7 15.811 7 15.1667C7 14.5223 7.52234 14 8.16667 14C8.81099 14 9.33333 14.5223 9.33333 15.1667Z" fill="white"/>
</svg>
