<svg width="18" height="24" viewBox="0 0 18 24" fill="none" xmlns="http://www.w3.org/2000/svg">
<g clip-path="url(#clip0_800_1437)">
<path d="M18 14.9577C18 19.964 13.9641 23.9999 9 23.9999C4.03594 23.9999 0 19.9626 0 14.9999C0 12.2498 1.30406 9.99368 2.55797 8.714C3.25969 7.93587 4.5 8.42806 4.5 9.44525V13.4531C4.5 15.1017 5.81109 16.4765 7.46063 16.4971C9.13594 16.5234 10.5 15.1687 10.5 13.4999C10.5 9.37494 2.29219 8.99431 8.05547 0.506186C8.68828 -0.418189 10.125 0.00134194 10.125 1.11697C10.0828 5.95306 18 7.01712 18 14.9577Z" fill="#F8730C"/>
</g>
<defs>
<clipPath id="clip0_800_1437">
<rect width="18" height="24" fill="white"/>
</clipPath>
</defs>
</svg>
