<svg width="27" height="24" viewBox="0 0 27 24" fill="none" xmlns="http://www.w3.org/2000/svg">
<path d="M14.1656 10.2375C14.1656 11.0437 13.6734 11.5078 12.8063 11.5078H11.6672V8.96719H12.8109C13.6734 8.96719 14.1656 9.42656 14.1656 10.2375ZM16.3922 13.1719C16.3922 13.5609 16.7297 13.8141 17.2594 13.8141C17.9344 13.8141 18.4406 13.3875 18.4406 12.7875V12.4266L17.3391 12.4969C16.7156 12.5391 16.3922 12.7688 16.3922 13.1719ZM27 3.70312V20.2031C27 21.4453 25.9922 22.4531 24.75 22.4531H2.25C1.00781 22.4531 0 21.4453 0 20.2031V3.70312C0 2.46094 1.00781 1.45312 2.25 1.45312H24.75C25.9922 1.45312 27 2.46094 27 3.70312ZM5.99063 9.24375C6.38438 9.27656 6.77812 9.04688 7.02656 8.75625C7.27031 8.45625 7.42969 8.05313 7.3875 7.64531C7.04063 7.65938 6.60938 7.875 6.36094 8.175C6.13594 8.43281 5.94375 8.85 5.99063 9.24375ZM8.83125 12.7359C8.82187 12.7266 7.9125 12.3797 7.90313 11.3297C7.89375 10.4531 8.62031 10.0312 8.65313 10.0078C8.24063 9.39844 7.60313 9.33281 7.38281 9.31875C6.81094 9.28594 6.32344 9.64219 6.05156 9.64219C5.775 9.64219 5.3625 9.33281 4.9125 9.34219C4.32656 9.35156 3.77813 9.68437 3.48281 10.2141C2.86875 11.2734 3.32344 12.8391 3.91875 13.7016C4.20937 14.1281 4.56094 14.5969 5.02031 14.5781C5.45625 14.5594 5.62969 14.2969 6.15469 14.2969C6.68438 14.2969 6.83438 14.5781 7.29375 14.5734C7.77188 14.5641 8.06719 14.1469 8.3625 13.7203C8.68594 13.2328 8.82187 12.7641 8.83125 12.7359ZM15.1781 10.2328C15.1781 8.98594 14.3109 8.13281 13.0734 8.13281H10.6734V14.5266H11.6672V12.3422H13.0406C14.2969 12.3422 15.1781 11.4797 15.1781 10.2328ZM19.3969 11.3438C19.3969 10.4203 18.6562 9.825 17.5219 9.825C16.4672 9.825 15.6891 10.4297 15.6609 11.2547H16.5563C16.6313 10.8609 16.9969 10.6031 17.4938 10.6031C18.1031 10.6031 18.4406 10.8844 18.4406 11.4094V11.7609L17.2031 11.8359C16.05 11.9062 15.4266 12.3797 15.4266 13.2C15.4266 14.0297 16.0688 14.5781 16.9922 14.5781C17.6156 14.5781 18.1922 14.2641 18.4547 13.7625H18.4734V14.5312H19.3922V11.3438H19.3969ZM24.1875 9.88594H23.1797L22.0125 13.6641H21.9938L20.8266 9.88594H19.7812L21.4641 14.5406L21.375 14.8219C21.225 15.3 20.9766 15.4875 20.5359 15.4875C20.4563 15.4875 20.3062 15.4781 20.2453 15.4734V16.2422C20.3016 16.2609 20.55 16.2656 20.625 16.2656C21.5953 16.2656 22.05 15.8953 22.4484 14.775L24.1875 9.88594Z" fill="#F8730C"/>
</svg>
