<svg width="214" height="60" viewBox="0 0 214 60" fill="none" xmlns="http://www.w3.org/2000/svg">
<path d="M7.92502 9.56843L7.98511 9.49936L8.16458 9.32012C8.16998 9.32037 8.17536 9.31946 8.18037 9.31745C8.18538 9.31544 8.18989 9.31238 8.1936 9.30847C8.1973 9.30457 8.20012 9.29991 8.20184 9.29482C8.20357 9.28973 8.20417 9.28433 8.2036 9.27899L8.55554 8.92282C8.56355 8.92226 8.57108 8.91879 8.57669 8.91306C8.58231 8.90734 8.58561 8.89977 8.58597 8.89178L8.78964 8.68693C8.79655 8.68598 8.80295 8.68281 8.80788 8.67791C8.81281 8.67301 8.816 8.66664 8.81695 8.65977L9.63319 7.85742L9.70186 7.79379L10.8786 6.76952L10.9512 6.71132C11.871 6.00882 12.81 5.33269 13.7682 4.68295C13.9932 4.5807 14.2032 4.44862 14.3925 4.29031C14.4612 4.25772 14.533 4.22901 14.5985 4.19099C16.4615 3.09187 18.4384 2.19587 20.4948 1.51856C22.6153 0.817927 24.8088 0.358469 27.0333 0.148985C28.2771 0.0318144 29.521 0.0108635 30.768 0L31.0801 0.00776013C31.2471 0.0287112 31.4133 0.0620779 31.5811 0.0698376C34.5367 0.215177 37.454 0.798134 40.2367 1.79946C41.7911 2.34962 43.2714 3.06118 44.7276 3.82706C44.7517 3.90466 44.822 3.89612 44.8789 3.91474L46.7455 5.07869C46.8027 5.15721 46.8854 5.21368 46.9796 5.23854L48.467 6.32489C48.5707 6.46272 48.7079 6.57217 48.8657 6.64304L49.028 6.78194C49.1063 6.88981 49.2115 6.97564 49.3331 7.03102L49.4892 7.16837C49.5895 7.30569 49.7214 7.41717 49.8739 7.4935L52.0706 9.65999C52.2922 9.93158 52.499 10.2164 52.7729 10.4437C53.0072 10.7763 53.2681 11.0896 53.5532 11.3803C53.8419 11.8124 54.1561 12.2269 54.4943 12.6218C54.5693 12.7966 54.6783 12.9548 54.815 13.0874C55.3941 14.0139 56.0012 14.9234 56.5115 15.891C58.3785 19.4229 59.5234 23.2876 59.8802 27.262C60.0743 29.4784 60.0324 31.709 59.7554 33.9167C59.4783 36.1977 58.9295 38.4378 58.1206 40.59C57.5221 42.1931 56.7464 43.7086 55.9044 45.1938L55.1147 46.4353C54.8542 46.7526 54.6194 47.0899 54.4124 47.4441C54.3051 47.5277 54.222 47.638 54.1713 47.7638L54.1127 47.8414L53.6383 48.4621C53.5111 48.5289 53.4526 48.6491 53.3956 48.7725C53.2335 48.9032 53.0981 49.0636 52.9968 49.2451L52.9352 49.3227C52.7723 49.4523 52.6361 49.6119 52.5341 49.7929L52.467 49.8643L51.3651 51.0352L51.2177 51.1819L50.8946 51.5L50.591 51.7949C50.3318 51.9801 50.0948 52.1944 49.8848 52.4335L49.813 52.4995C49.4782 52.7365 49.1629 52.9999 48.8704 53.2871L48.7963 53.3468C48.6416 53.4227 48.5055 53.5313 48.3975 53.665L47.227 54.5278L45.5805 55.6142C45.4782 55.6677 45.3737 55.7159 45.2753 55.7748C41.4884 58.0935 37.2083 59.4987 32.7774 59.8781C30.3816 60.0913 27.969 60.0246 25.5889 59.6795C23.3042 59.3431 21.0666 58.7442 18.9208 57.8948C17.5162 57.3423 16.1857 56.6416 14.863 55.9246L13.8439 55.3038L12.0413 54.0537L11.9633 53.9948C11.9382 53.9528 11.905 53.9162 11.8657 53.887C11.8263 53.8578 11.7815 53.8367 11.7339 53.8248C11.6269 53.693 11.4914 53.5869 11.3375 53.5144C11.0479 53.2285 10.7347 52.9674 10.401 52.7338C10.3136 52.6283 10.2364 52.5088 10.0764 52.501L9.84934 52.2744C9.82935 52.2197 9.79825 52.1696 9.75798 52.1273C9.71771 52.085 9.66913 52.0513 9.61524 52.0285L9.21336 51.6467L8.81773 51.2587L8.7397 51.1811L8.18409 50.6178C8.1848 50.6122 8.18425 50.6065 8.1825 50.6012C8.18074 50.5959 8.17782 50.591 8.17394 50.5869C8.17006 50.5828 8.16532 50.5796 8.16006 50.5776C8.1548 50.5756 8.14915 50.5747 8.14351 50.5751L7.33742 49.7029L7.27421 49.63C7.14605 49.4236 6.98832 49.237 6.80601 49.0759L6.62029 48.8292C6.62083 48.8244 6.62037 48.8196 6.61895 48.815C6.61752 48.8104 6.61516 48.8061 6.61201 48.8025C6.60887 48.7988 6.60499 48.7959 6.60064 48.7938C6.59629 48.7917 6.59156 48.7905 6.58673 48.7904L6.33858 48.4264L6.27459 48.3488C6.06332 48.0181 5.82586 47.7047 5.56448 47.4115L4.55004 45.9294C4.52194 45.8727 4.49853 45.8138 4.46498 45.7602C1.89843 41.6755 0.464941 37.2246 0.0950582 32.4276C-0.0957403 30.0066 0.000906736 27.5716 0.383004 25.1731C0.983051 21.4025 2.30008 17.7801 4.26365 14.4997C4.98313 13.2915 5.82434 12.1671 6.65306 11.0358C6.78778 10.9291 6.89727 10.7942 6.97378 10.6408L7.03699 10.5686C7.17433 10.4667 7.28533 10.3337 7.36083 10.1807C7.57455 10.0015 7.76417 9.79575 7.92502 9.56843ZM48.5606 9.39461L48.3265 9.16182C48.0066 8.73038 47.5462 8.45492 47.1372 8.12746C47.1374 8.12236 47.1364 8.11729 47.1344 8.1126C47.1324 8.1079 47.1295 8.10368 47.1257 8.10022C47.1219 8.09677 47.1175 8.09415 47.1126 8.09256C47.1077 8.09097 47.1025 8.09043 47.0975 8.09099L46.8446 7.91174C46.6626 7.72341 46.452 7.56472 46.2203 7.44151C45.9858 7.22482 45.7218 7.04197 45.4361 6.89833C45.3931 6.85192 45.3464 6.8091 45.2964 6.7703C39.9019 3.235 33.9814 1.74747 27.5444 2.23478C24.5307 2.4612 21.5798 3.20825 18.8241 4.4424C17.2127 5.16017 15.641 5.9532 14.2052 6.98834C13.9221 7.13613 13.6597 7.32032 13.4249 7.53617C13.3001 7.58152 13.1915 7.6625 13.1127 7.76896C12.9872 7.8129 12.8782 7.89417 12.8006 8.00175C12.4834 8.19939 12.1926 8.43612 11.9352 8.70633L11.865 8.76918C11.3565 9.14204 10.886 9.5636 10.4604 10.0278L10.3886 10.0984L9.91567 10.5686C9.61836 10.8208 9.3351 11.0862 9.12675 11.4222C8.74484 11.8001 8.40475 12.2177 8.1123 12.6676C7.86533 12.9234 7.65333 13.2104 7.48178 13.5212C7.32187 13.6809 7.18999 13.866 7.09161 14.069C7.03465 14.1365 6.97066 14.2002 6.9215 14.2731C5.87322 15.8246 4.98436 17.4769 4.26833 19.2051C3.07363 22.0475 2.3401 24.9977 2.1895 28.0799C2.05918 30.7554 2.20823 33.4092 2.80597 36.0343C3.23594 37.9253 3.76033 39.7806 4.58125 41.5436C4.67255 41.7392 4.77868 41.8602 5.00966 41.8633C6.1911 41.8819 7.37332 41.9153 8.55476 41.9246C8.94493 41.9246 9.32808 41.8734 9.61446 41.5607C9.78588 41.4425 9.92354 41.282 10.014 41.0951C10.3753 40.7164 10.5938 40.2524 10.7834 39.776C11.3297 38.4118 11.513 36.9763 11.6605 35.5268C11.8525 33.6373 11.9492 31.7432 12.0218 29.8483C12.1194 27.3078 12.2614 24.7711 12.7335 22.2671C13.0456 20.6236 13.474 19.0158 14.3847 17.5795C14.4234 17.5196 14.4479 17.4517 14.4564 17.381C14.4649 17.3103 14.4572 17.2386 14.4339 17.1713C14.2052 16.4349 14.1912 15.6714 14.1592 14.9141C14.1038 13.5817 14.1467 12.2618 14.8615 11.0614C15.197 10.4965 15.5802 9.96494 15.954 9.42642L16.0117 9.34883C16.1452 9.24165 16.2568 9.10993 16.3402 8.96084L16.4807 8.81031L16.7991 8.49527C17.2431 8.20816 17.3016 8.21669 17.8003 8.65046C17.9662 8.98907 18.1 9.34238 18.1998 9.70577C18.4089 10.4554 18.6508 11.1972 18.7632 11.97C18.8046 12.2571 18.8881 12.3751 19.2228 12.2401C19.5841 12.1068 19.96 12.0164 20.3426 11.9708C20.8889 11.8932 21.3571 11.7023 21.6466 11.1995C21.9222 10.9201 22.1585 10.6048 22.3489 10.2621C22.5599 10.0248 22.7431 9.76453 22.8951 9.48617C22.9373 9.46069 22.9738 9.42689 23.0024 9.38686C23.031 9.34683 23.051 9.30141 23.0613 9.25338C23.1917 9.14433 23.2969 9.00854 23.3696 8.85531C23.4794 8.77553 23.5642 8.66624 23.6138 8.54027L23.6778 8.46733C23.8123 8.36182 23.9234 8.22971 24.004 8.07935L24.4894 7.57963C24.4969 7.57891 24.5039 7.57555 24.5092 7.57015C24.5145 7.56475 24.5177 7.55766 24.5182 7.55014L24.9373 7.13966C25.2744 6.96894 25.5444 6.56467 26.0087 6.82927L26.0048 6.82539C26.1819 7.10532 26.2635 7.4346 26.2373 7.76431C26.2077 9.25494 25.9353 10.6695 24.97 11.8769C24.6907 12.0678 24.9154 12.1361 25.0598 12.1935C26.0315 12.5687 26.9475 13.0736 27.7824 13.6942L28.4371 14.3344C28.4375 14.3424 28.4408 14.35 28.4464 14.3557C28.452 14.3614 28.4595 14.3649 28.4675 14.3654L28.6455 14.5501C28.9123 14.9381 29.1917 15.3261 29.3407 15.7793C29.4633 16.1672 29.5608 16.5793 29.3329 16.9331C29.0832 17.3211 29.2175 17.5368 29.5468 17.737C29.6669 17.81 29.7809 17.8868 29.9034 17.962L31.148 18.9041L31.7005 19.3821L31.8425 19.5202C33.3509 21.3965 33.4984 23.5715 32.2421 25.4035L32.086 25.5587C30.9646 26.711 29.585 27.2302 27.9853 27.2891C27.3712 27.3116 26.7453 27.3714 26.1476 27.5631C25.6131 27.7345 25.5553 27.8253 25.6357 28.3685C25.9377 30.3984 26.0766 32.4454 26.2443 34.4885C26.3029 35.2001 26.363 35.9117 26.4293 36.7016L26.8093 36.2787L26.9513 36.1313C27.1261 35.9606 27.3532 35.8348 27.4234 35.5765L27.7293 35.273C27.7847 35.2533 27.8355 35.2224 27.8784 35.1824C27.9214 35.1423 27.9556 35.094 27.979 35.0403L28.1211 34.8905C28.3916 34.66 28.6334 34.3982 28.8413 34.1107L28.9038 34.0447L29.1379 33.7972C29.3284 33.6437 29.4924 33.4602 29.6232 33.254L29.8394 33.0259C30.1063 32.7927 30.3483 32.5327 30.5612 32.2499L30.6985 32.0993C30.9656 31.8653 31.2065 31.6033 31.4172 31.318L31.6334 31.0852L31.9752 30.7399L31.9955 30.7189L32.6642 29.9957L32.8851 29.7753C33.0235 29.708 33.1758 29.6735 33.3299 29.6745C34.1882 29.6977 35.0466 29.7055 35.8988 29.728C38.039 29.7839 40.1789 29.8426 42.3186 29.9041L42.4747 29.9111C42.8563 29.9367 43.2387 29.9755 43.621 29.9817C43.7091 29.9766 43.7973 29.9897 43.88 30.0202C43.9627 30.0506 44.0382 30.0978 44.1017 30.1587C44.2321 30.3636 44.3941 30.5469 44.5816 30.7018L44.7986 30.9346C44.9333 31.1386 45.0977 31.3216 45.2863 31.4778L45.735 31.9434C46.0248 32.2953 46.3416 32.6245 46.6823 32.9281L47.6148 33.9368C47.8848 34.2627 48.1478 34.5956 48.4732 34.8734L48.5348 34.944C48.6727 35.1451 48.8361 35.3277 49.021 35.4872L50.3476 36.9615C50.9501 37.7184 51.6071 38.4308 52.3133 39.0931C52.5037 39.2739 52.7034 39.4485 52.5435 39.7527C52.3983 40.0289 52.147 40.0507 51.8802 40.0398C51.4525 40.022 51.0218 40.0212 50.5973 39.9777C50.2711 39.9444 50.2204 40.0755 50.2212 40.3657C50.229 42.1613 50.2266 43.9561 50.2024 45.7517C50.2024 46.0318 50.2805 46.1498 50.5372 46.1769C50.602 46.178 50.6663 46.1892 50.7276 46.2103C51.0998 46.381 51.1443 46.2103 51.1412 45.8782C51.1264 44.3542 51.1342 42.8302 51.1342 41.3062C51.1342 40.7064 51.1342 40.6978 51.7467 40.7909C52.3382 40.8809 52.8743 40.7909 53.3347 40.3851C53.5491 40.2664 53.7115 40.0729 53.7905 39.8419C54.0487 39.2025 53.6344 38.8169 53.2489 38.4196L53.0343 38.1868C52.8794 37.9507 52.6892 37.7395 52.4701 37.5606L52.332 37.4108C52.1642 37.1346 51.8958 36.9507 51.6898 36.7125L51.3901 36.4067C51.1764 36.1263 50.9365 35.8665 50.6738 35.6308L50.3772 35.3204L49.6476 34.5219C49.6481 34.5167 49.6474 34.5115 49.6457 34.5066C49.6439 34.5017 49.6411 34.4972 49.6375 34.4935C49.6339 34.4898 49.6295 34.4868 49.6247 34.4849C49.6198 34.483 49.6146 34.4821 49.6094 34.4823L48.9453 33.7692L48.7783 33.5853C48.7788 33.5799 48.7781 33.5745 48.7762 33.5694C48.7743 33.5643 48.7714 33.5597 48.7675 33.556C48.7636 33.5522 48.7589 33.5493 48.7538 33.5475C48.7486 33.5458 48.7431 33.5452 48.7377 33.5457C48.403 33.1655 48.0861 32.7698 47.6999 32.4369L47.6398 32.3655C47.0647 31.692 46.4693 31.0409 45.8286 30.4256L45.5992 30.1827C45.5753 30.13 45.541 30.0827 45.4984 30.0434C45.4557 30.004 45.4057 29.9736 45.351 29.9538L44.8126 29.4168C44.813 29.3651 44.7976 29.3146 44.7683 29.2718C44.739 29.2291 44.6973 29.1963 44.6487 29.1778L44.5762 29.1072C44.3826 28.8488 44.0884 28.8954 43.8278 28.8861C40.7278 28.7743 37.6275 28.668 34.5269 28.5672C33.9073 28.5462 33.6638 28.235 33.816 27.6492L34.5129 26.94C34.5824 26.9369 34.6494 26.9131 34.7051 26.8715C34.7608 26.83 34.8026 26.7727 34.825 26.7072C34.8962 26.7053 34.9651 26.6814 35.0219 26.6387C35.0787 26.5959 35.1206 26.5366 35.1418 26.4689L35.2128 26.3976C35.2831 26.3844 35.365 26.3976 35.3954 26.3044C35.4012 26.305 35.407 26.3043 35.4125 26.3024C35.418 26.3006 35.4231 26.2975 35.4273 26.2936C35.4315 26.2896 35.4348 26.2848 35.437 26.2794C35.4392 26.2741 35.4402 26.2683 35.4399 26.2625L35.6966 26.0065L35.8387 25.8583C36.0074 25.7325 36.1467 25.5718 36.2468 25.3873L36.3061 25.3097C36.5529 25.0528 36.766 24.7661 36.9405 24.4561C37.692 23.6025 38.2671 22.6597 38.4232 21.4989C37.628 21.6836 36.8398 21.862 36.0548 22.0529C35.8894 22.0933 35.7427 22.1158 35.6444 21.9536C35.546 21.7914 35.6327 21.6587 35.7474 21.5416C35.9901 21.2933 36.2351 21.0465 36.4793 20.7997C36.6809 20.6459 36.8617 20.4667 37.017 20.2667L37.2776 20.0052C37.2821 20.0051 37.2865 20.0041 37.2906 20.0023C37.2947 20.0004 37.2983 19.9978 37.3014 19.9946C37.3045 19.9913 37.3068 19.9875 37.3084 19.9833C37.3099 19.9791 37.3106 19.9747 37.3104 19.9702C37.5677 19.7092 37.7868 19.4135 37.9612 19.0918L38.0205 19.0259L38.1945 18.7264C38.4699 18.3356 38.7077 17.9199 38.9046 17.4848C39.2273 16.9391 39.4776 16.354 39.6491 15.7443C39.2012 15.8879 38.8289 16.0198 38.4497 16.1253C37.9565 16.2627 37.4836 16.5025 36.9475 16.4458L36.9514 16.4497C36.7173 16.116 36.9514 15.87 37.1122 15.6116L37.177 15.5395C37.3375 15.4096 37.4731 15.2518 37.5773 15.0739C37.9366 14.6948 38.2508 14.2759 38.5137 13.8254C38.5572 13.7801 38.5979 13.7322 38.6354 13.6818C39.5437 12.2835 40.1126 10.7231 40.5176 9.10285C40.6271 8.61581 40.7839 8.1405 40.9858 7.68361C41.024 7.60135 41.0685 7.50436 41.1661 7.49893C41.2964 7.49117 41.3096 7.62696 41.3557 7.70999C41.3757 7.7709 41.3862 7.83448 41.3869 7.89855C41.7225 9.81286 42.4661 11.5681 43.472 13.2224C43.6584 13.6142 43.8987 13.9783 44.186 14.3041C44.3594 14.6001 44.5752 14.8693 44.8267 15.1034C44.8262 15.1089 44.8269 15.1145 44.8288 15.1197C44.8307 15.1249 44.8338 15.1296 44.8377 15.1335C44.8417 15.1374 44.8464 15.1404 44.8516 15.1423C44.8569 15.1442 44.8625 15.145 44.868 15.1445L44.9835 15.2594C44.983 15.2647 44.9837 15.2702 44.9856 15.2753C44.9875 15.2803 44.9905 15.2849 44.9943 15.2887C44.9982 15.2925 45.0029 15.2954 45.0081 15.2972C45.0132 15.2989 45.0187 15.2995 45.0241 15.2989L45.362 15.6225C45.4528 15.7675 45.5875 15.8803 45.7467 15.9445L45.7428 15.9407C45.8083 16.0718 45.9933 16.1905 45.6647 16.2774C45.4981 16.3315 45.3206 16.3435 45.1482 16.3123C44.5449 16.1804 43.9355 16.0664 43.344 15.8956C43.074 15.8181 43.0951 15.9275 43.1029 16.1013C43.131 16.7337 43.39 17.2831 43.7186 17.8084C43.8003 18.0223 43.9389 18.21 44.1197 18.3516L44.1805 18.4237C44.4295 18.7729 44.6698 19.1299 44.9741 19.4325C45.1216 19.6699 45.306 19.8825 45.5204 20.0626C45.6233 20.2402 45.7576 20.3979 45.9168 20.5282C46.1072 20.8036 46.296 21.0799 46.488 21.3538C46.591 21.5012 46.566 21.5757 46.3788 21.6145C46.075 21.6806 45.7675 21.7285 45.458 21.7581C44.893 21.8046 44.3795 21.6424 43.8372 21.3266C44.0869 22.1391 44.5293 22.7342 44.978 23.3255C45.0011 23.4191 45.0602 23.4999 45.1427 23.5505C45.5126 24.1286 45.9012 24.6935 46.3912 25.1801C46.7034 25.5401 46.7034 25.5409 46.8946 25.1389C46.9773 24.9659 47.0553 24.7905 47.1287 24.6144C47.2927 24.246 47.4233 23.8637 47.5188 23.4722C47.2356 23.497 47.0054 23.5304 46.7736 23.5358C45.891 23.556 45.891 23.5529 46.2609 22.7792C47.0272 21.5929 47.6525 20.3222 48.1244 18.9925C48.4857 17.9977 48.5723 16.9378 48.918 15.9422L48.9804 15.8716C49.2926 15.794 49.3144 16.0477 49.362 16.2316C49.5961 17.1248 49.7522 18.0358 50.0604 18.9118C50.5895 20.4257 51.2871 21.845 52.3273 23.0819L52.3936 23.1595L52.7838 23.6351V23.847L52.7877 23.8431C52.5872 23.9835 52.371 23.9277 52.1541 23.8966C51.6469 23.8237 51.1396 23.7585 50.5809 23.6832C50.8568 24.5793 51.3132 25.4101 51.9223 26.1252C52.0455 26.3547 52.2034 26.5641 52.3905 26.746C52.4613 26.9004 52.5709 27.0341 52.7089 27.1339C52.9251 27.4816 53.2239 27.7547 53.5064 28.048L53.5844 28.1311L53.6672 28.2234C53.7452 28.3103 53.8232 28.3949 53.8919 28.4841C53.9887 28.6036 54.126 28.7231 54.0402 28.8938C53.9543 29.0646 53.7998 29.0677 53.6383 29.0638C53.3532 29.0658 53.0686 29.0424 52.7877 28.9939C52.2953 28.8946 51.8653 28.6517 51.4042 28.4554C51.7366 29.1204 52.0846 29.7583 52.4506 30.386C52.7537 30.9246 53.128 31.4205 53.5634 31.8604C53.8834 32.2988 54.2856 32.6717 54.7479 32.9583L54.826 33.0196C54.9664 33.15 55.1139 33.2742 55.2466 33.4115C55.3589 33.5287 55.5244 33.6443 55.4456 33.836C55.3667 34.0276 55.167 34.0362 54.9813 34.0237C54.0495 33.9632 53.1155 33.9174 52.1775 33.6458C52.2321 33.8732 52.2875 34.061 52.4327 34.2108C52.4328 34.219 52.4362 34.2269 52.442 34.2328C52.4478 34.2387 52.4556 34.2422 52.4639 34.2426L53.3425 35.2024C53.4541 35.3839 53.5933 35.547 53.7553 35.6859C53.7545 35.6914 53.755 35.6971 53.7566 35.7025C53.7583 35.7078 53.7611 35.7128 53.7649 35.7169C53.7687 35.7211 53.7734 35.7244 53.7786 35.7265C53.7838 35.7286 53.7895 35.7296 53.7951 35.7293C54.005 35.9737 54.19 36.2415 54.4459 36.444L54.6605 36.6768C54.8198 36.9084 55.0101 37.1172 55.2263 37.2975L55.366 37.4527C55.5477 37.7143 55.7622 37.9519 56.0043 38.1596L56.0667 38.2295C56.1642 38.4 56.2973 38.5479 56.4569 38.6632C56.4936 38.574 56.5349 38.4941 56.5614 38.4111C57.2263 36.5596 57.5064 34.6274 57.7187 32.6891C57.9507 30.4923 57.9067 28.2754 57.5876 26.0895C57.2316 23.5093 56.514 20.9914 55.4557 18.6092C54.9235 17.4181 54.382 16.2254 53.6102 15.1585C53.5901 15.0639 53.5342 14.9805 53.4541 14.9257C53.3023 14.6457 53.1151 14.3863 52.897 14.1536C52.8247 13.999 52.718 13.8629 52.5848 13.7555C52.4505 13.5222 52.2851 13.3079 52.0932 13.1185C52.0944 13.1127 52.0945 13.1068 52.0932 13.1011C52.092 13.0953 52.0896 13.0899 52.0862 13.0851C52.0827 13.0804 52.0783 13.0764 52.0732 13.0735C52.0681 13.0705 52.0624 13.0687 52.0565 13.068L51.2863 12.1198L51.0741 11.8785C50.9724 11.6974 50.8346 11.539 50.6691 11.4129C50.397 11.045 50.0833 10.7094 49.7342 10.4127L49.0319 9.7919C48.9921 9.66542 48.8876 9.59869 48.7853 9.53041C48.7854 9.52452 48.7842 9.51868 48.7818 9.5133C48.7793 9.50792 48.7758 9.50312 48.7714 9.49922C48.7669 9.49532 48.7617 9.49242 48.756 9.4907C48.7504 9.48899 48.7444 9.4885 48.7385 9.48928C48.7112 9.39694 48.6332 9.40392 48.5606 9.39461ZM20.8678 54.9701C21.0044 54.8648 21.1138 54.7286 21.1869 54.5729L21.2478 54.4953C21.5665 54.1463 21.8342 53.7545 22.043 53.3313C22.501 52.6329 22.8233 51.8655 23.0879 51.0764C23.8323 48.8773 24.3731 46.6324 24.59 44.32C24.8054 42.0263 24.7976 39.7286 24.7 37.4264C24.5752 34.4699 24.2256 31.5407 23.7418 28.6246C23.7121 28.4446 23.6638 28.3212 23.4296 28.3142C22.3513 28.2863 21.3011 27.9659 20.3926 27.3877L19.7683 26.9081L19.6996 26.8437C19.3961 26.4612 18.9911 26.1415 18.8927 25.5913C20.9575 26.7328 22.4043 26.8554 24.4332 26.3735C25.9751 26.008 27.521 25.7411 29.1043 25.6751C29.5226 25.6573 29.6857 25.589 29.8292 25.4742C29.1894 25.4292 28.6954 25.0761 28.1952 24.7362L28.0501 24.5942C27.972 24.4895 27.894 24.3886 27.8277 24.2838C27.7613 24.1791 27.7114 24.0766 27.7964 23.9626C27.8963 23.8283 27.9853 23.9571 28.0641 23.989C28.5177 24.1761 28.9955 24.2986 29.4836 24.3529C30.0228 24.4088 30.5955 24.5376 31.0872 24.1488C31.4196 23.9455 31.5179 23.6056 31.6334 23.2658C31.7653 22.8855 31.617 22.7032 31.2705 22.5798C30.6902 22.3913 30.1286 22.15 29.5928 21.8589C29.5918 21.8537 29.5898 21.8488 29.5867 21.8444C29.5837 21.8401 29.5797 21.8364 29.5752 21.8337C29.5706 21.831 29.5655 21.8292 29.5602 21.8287C29.5549 21.8281 29.5495 21.8286 29.5444 21.8302C29.4445 21.7526 29.3415 21.675 29.2448 21.5912C29.148 21.5074 29.0637 21.4011 29.1238 21.2576C29.1839 21.114 29.3228 21.1125 29.4531 21.1218C29.5557 21.1277 29.6577 21.1412 29.7582 21.1621C30.1585 21.2506 30.5573 21.3484 30.9592 21.4322C31.1707 21.4764 31.4399 21.5703 31.5749 21.3685C31.727 21.1404 31.5476 20.9154 31.3931 20.7237L31.3369 20.6461C30.942 20.0874 30.4137 19.6793 29.8386 19.3231C29.8036 19.2876 29.7663 19.2545 29.727 19.2238C28.6837 18.5068 27.5101 18.0334 26.3879 17.4654C26.2826 17.4119 26.1125 17.3878 26.1398 17.2163C26.1671 17.0449 26.3372 17.0844 26.4566 17.0611C26.9248 16.9835 27.4102 16.9952 27.8128 16.6732C28.0329 16.4986 28.1156 16.3046 28.0469 16.0345C27.9174 15.5146 27.5116 15.2415 27.1004 14.9715C27.0661 14.9353 27.0291 14.9018 26.9896 14.8714C25.7761 14.0721 24.4277 13.6399 22.9989 13.4343C21.503 13.2193 20.0625 13.3272 18.7585 14.1901C18.3309 14.4733 17.8916 14.7418 17.6262 15.2035L17.5662 15.2811C17.4632 15.3331 17.4226 15.4316 17.3765 15.5263L17.2985 15.6155C17.0917 15.5798 17.1424 15.3889 17.1245 15.2749C17.0464 14.7395 16.991 14.2002 16.9473 13.6609C16.8763 12.7825 16.8209 11.9025 16.7585 11.0172C16.7312 11.0389 16.7039 11.0497 16.6969 11.0684C16.6032 11.319 16.5002 11.5673 16.4237 11.8234C15.9243 13.5002 15.5497 15.1887 15.9267 16.951C16.0617 17.5818 16.1256 18.1871 15.7417 18.7923C15.2454 19.5745 14.9333 20.4529 14.6867 21.3406C14.1904 23.1315 14.1256 24.9791 14.0624 26.8197C13.95 30.0694 13.9883 33.3246 13.5989 36.5635C13.3593 38.5562 12.9785 40.4922 11.8579 42.2094C11.8109 42.2516 11.7666 42.2967 11.7253 42.3444C11.1439 43.1018 10.419 43.6542 9.45137 43.7831C8.48374 43.9119 7.53251 43.9344 6.5641 43.9344H5.95777C6.15442 44.178 6.21607 44.4124 6.40413 44.5714C6.59325 44.9615 6.83076 45.3265 7.11112 45.6578C7.18364 45.8333 7.29206 45.9918 7.4295 46.1234C7.55075 46.3557 7.70884 46.5672 7.89771 46.7496C8.32517 47.3536 8.7984 47.9243 9.31325 48.4567L9.45293 48.6119C9.59247 48.8219 9.76023 49.012 9.95157 49.1768C9.9511 49.1818 9.95175 49.1869 9.95345 49.1917C9.95516 49.1965 9.95789 49.2008 9.96145 49.2044C9.96502 49.208 9.96933 49.2108 9.97409 49.2126C9.97885 49.2144 9.98395 49.2152 9.98903 49.2148L10.3215 49.5392C11.202 50.45 12.1678 51.2755 13.2056 52.0044C13.5142 52.2757 13.8502 52.5144 14.2083 52.7167C14.4132 52.9117 14.6509 53.0693 14.9106 53.1823C14.951 53.2306 14.9965 53.2743 15.0464 53.3127C16.5602 54.2509 18.161 55.0427 19.8268 55.6771C20.1062 55.7818 20.2794 55.7772 20.4082 55.5032L20.4729 55.4318C20.6377 55.3056 20.7747 55.1471 20.8756 54.9663L20.8678 54.9701ZM25.6778 53.6945C25.4039 53.8233 25.2307 54.0638 25.0333 54.2764L25.0106 54.2997L23.7504 55.6142L23.7824 55.653L25.3922 54.652H25.3883C25.7083 54.4797 26.0719 54.382 26.3247 54.0995C26.3478 54.099 26.3705 54.0943 26.3918 54.0855C26.9061 53.9141 27.3618 53.62 27.8503 53.3934C33.1871 50.9227 38.8204 49.6602 44.6737 49.2691C45.3401 49.2249 46.0073 49.2179 46.6776 49.1714C46.5525 49.1094 46.4171 49.0702 46.2781 49.0557C45.3471 48.9828 44.4224 48.8548 43.4891 48.7989C41.2652 48.667 39.0599 48.7275 36.8562 49.1186C34.2671 49.578 31.7559 50.26 29.372 51.379C28.3825 51.8446 27.3915 52.3101 26.5339 52.9992C26.2049 53.1775 25.9116 53.4142 25.6685 53.6976L25.6778 53.6945ZM37.5578 36.0025L37.3463 35.7697C37.333 35.7302 37.3094 35.695 37.2778 35.6677C37.2463 35.6404 37.2079 35.622 37.1668 35.6145L36.9928 35.3988C37.0053 35.3429 36.9655 35.3212 36.9249 35.3056C35.9698 34.1968 34.928 33.1694 33.9097 32.1195C33.7536 31.9643 33.6943 31.9884 33.5562 32.1389C32.6645 33.1135 31.7645 34.0809 30.8562 35.041C29.7637 36.198 28.6603 37.3457 27.5616 38.4972C27.0934 38.8262 26.9139 39.246 26.9311 39.8435C26.9771 41.4327 26.942 43.0249 26.9404 44.6149C26.9404 45.5166 26.9404 46.4195 26.9404 47.3238C28.2163 46.8388 29.5694 46.4306 30.9311 46.052C31.3127 45.9457 31.4547 45.7602 31.4602 45.3831C31.4898 43.5347 31.5686 41.6864 31.5171 39.8373C31.5101 39.5983 31.5819 39.5866 31.7692 39.5991C33.0177 39.6766 34.2663 39.6767 35.5148 39.6549C36.1789 39.6441 36.1929 39.6549 36.1391 40.316C36.0057 41.9308 36.0611 43.5448 36.1492 45.1588C36.1594 45.3365 36.1695 45.4692 36.4153 45.4948C37.6397 45.6267 38.8617 45.7773 40.0829 45.9325C40.2484 45.9534 40.2827 45.9108 40.2851 45.7587C40.3184 43.586 40.3545 41.4133 40.3935 39.2406C40.3935 39.1024 40.3881 38.9775 40.2109 38.9558L40.1173 38.8107C40.1321 38.7564 40.0978 38.7331 40.0549 38.7207L39.8434 38.4879C39.8294 38.4488 39.8056 38.414 39.7742 38.3868C39.7427 38.3596 39.7047 38.341 39.6639 38.3327L39.28 37.9517L38.8851 37.4752L38.7478 37.3255C38.7244 37.2708 38.6896 37.2217 38.6456 37.1816C38.6015 37.1414 38.5494 37.1111 38.4926 37.0927L38.2655 36.8661C38.2664 36.8138 38.2517 36.7625 38.2233 36.7186C38.1948 36.6746 38.1538 36.6401 38.1056 36.6193L38.0447 36.5511C38.0314 36.5122 38.0081 36.4775 37.9772 36.4503C37.9463 36.423 37.9087 36.4043 37.8683 36.3959L37.6186 36.0956C37.6303 36.042 37.5999 36.0195 37.557 36.0056L37.5578 36.0025ZM43.9511 42.6152C43.9511 42.9636 43.9511 43.3136 43.9511 43.6612C43.9511 44.1633 43.9511 44.1594 44.4739 44.1128C44.6678 44.0919 44.8629 44.0865 45.0576 44.0965C45.2668 44.1113 45.3354 44.029 45.3222 43.8319C45.2644 42.9675 45.2855 42.1023 45.3027 41.2379C45.3066 41.0431 45.2566 40.9539 45.0405 40.9818C44.7283 41.0214 44.4217 41.0493 44.1111 41.0594C43.9238 41.0664 43.9495 41.1844 43.9488 41.2969C43.9511 41.7361 43.9511 42.1753 43.9511 42.6152Z" fill="white"/>
<path d="M22.3428 18.1554C22.8539 18.1608 23.3299 18.3245 23.8067 18.4813C23.9102 18.5185 24.0053 18.5757 24.0865 18.6496C24.1676 18.7235 24.2333 18.8127 24.2796 18.912C24.4068 19.1541 24.4099 19.3434 24.1493 19.5382C23.6811 19.885 23.2433 20.2583 22.6783 20.4445C22.3092 20.5663 21.9667 20.5454 21.6577 20.3002C21.3509 20.0619 21.0823 19.7788 20.8609 19.4606C20.658 19.1634 20.6713 18.8964 20.9592 18.6435C21.1449 18.4736 21.3632 18.3429 21.6009 18.259C21.8387 18.1751 22.091 18.1399 22.3428 18.1554Z" fill="white"/>
<path d="M69.82 37L76.06 23H79.26L85.52 37H82.12L77 24.64H78.28L73.14 37H69.82ZM72.94 34L73.8 31.54H81L81.88 34H72.94ZM86.7525 37V22.16H89.8725V37H86.7525ZM99.1281 37.16C98.2215 37.16 97.4281 36.96 96.7481 36.56C96.0681 36.16 95.5348 35.5533 95.1481 34.74C94.7748 33.9133 94.5881 32.8733 94.5881 31.62C94.5881 30.3533 94.7681 29.3133 95.1281 28.5C95.4881 27.6867 96.0081 27.08 96.6881 26.68C97.3681 26.28 98.1815 26.08 99.1281 26.08C100.141 26.08 101.048 26.3133 101.848 26.78C102.661 27.2333 103.301 27.8733 103.768 28.7C104.248 29.5267 104.488 30.5 104.488 31.62C104.488 32.7533 104.248 33.7333 103.768 34.56C103.301 35.3867 102.661 36.0267 101.848 36.48C101.048 36.9333 100.141 37.16 99.1281 37.16ZM92.7681 40.88V26.24H95.7481V28.44L95.6881 31.64L95.8881 34.82V40.88H92.7681ZM98.5881 34.6C99.1081 34.6 99.5681 34.48 99.9681 34.24C100.381 34 100.708 33.66 100.948 33.22C101.201 32.7667 101.328 32.2333 101.328 31.62C101.328 30.9933 101.201 30.46 100.948 30.02C100.708 29.58 100.381 29.24 99.9681 29C99.5681 28.76 99.1081 28.64 98.5881 28.64C98.0681 28.64 97.6015 28.76 97.1881 29C96.7748 29.24 96.4481 29.58 96.2081 30.02C95.9681 30.46 95.8481 30.9933 95.8481 31.62C95.8481 32.2333 95.9681 32.7667 96.2081 33.22C96.4481 33.66 96.7748 34 97.1881 34.24C97.6015 34.48 98.0681 34.6 98.5881 34.6ZM113.001 37V34.9L112.801 34.44V30.68C112.801 30.0133 112.594 29.4933 112.181 29.12C111.781 28.7467 111.161 28.56 110.321 28.56C109.748 28.56 109.181 28.6533 108.621 28.84C108.074 29.0133 107.608 29.2533 107.221 29.56L106.101 27.38C106.688 26.9667 107.394 26.6467 108.221 26.42C109.048 26.1933 109.888 26.08 110.741 26.08C112.381 26.08 113.654 26.4667 114.561 27.24C115.468 28.0133 115.921 29.22 115.921 30.86V37H113.001ZM109.721 37.16C108.881 37.16 108.161 37.02 107.561 36.74C106.961 36.4467 106.501 36.0533 106.181 35.56C105.861 35.0667 105.701 34.5133 105.701 33.9C105.701 33.26 105.854 32.7 106.161 32.22C106.481 31.74 106.981 31.3667 107.661 31.1C108.341 30.82 109.228 30.68 110.321 30.68H113.181V32.5H110.661C109.928 32.5 109.421 32.62 109.141 32.86C108.874 33.1 108.741 33.4 108.741 33.76C108.741 34.16 108.894 34.48 109.201 34.72C109.521 34.9467 109.954 35.06 110.501 35.06C111.021 35.06 111.488 34.94 111.901 34.7C112.314 34.4467 112.614 34.08 112.801 33.6L113.281 35.04C113.054 35.7333 112.641 36.26 112.041 36.62C111.441 36.98 110.668 37.16 109.721 37.16ZM124.023 37.16C122.863 37.16 121.829 36.9267 120.923 36.46C120.016 35.98 119.303 35.32 118.783 34.48C118.276 33.64 118.023 32.6867 118.023 31.62C118.023 30.54 118.276 29.5867 118.783 28.76C119.303 27.92 120.016 27.2667 120.923 26.8C121.829 26.32 122.863 26.08 124.023 26.08C125.156 26.08 126.143 26.32 126.983 26.8C127.823 27.2667 128.443 27.94 128.843 28.82L126.423 30.12C126.143 29.6133 125.789 29.24 125.363 29C124.949 28.76 124.496 28.64 124.003 28.64C123.469 28.64 122.989 28.76 122.563 29C122.136 29.24 121.796 29.58 121.543 30.02C121.303 30.46 121.183 30.9933 121.183 31.62C121.183 32.2467 121.303 32.78 121.543 33.22C121.796 33.66 122.136 34 122.563 34.24C122.989 34.48 123.469 34.6 124.003 34.6C124.496 34.6 124.949 34.4867 125.363 34.26C125.789 34.02 126.143 33.64 126.423 33.12L128.843 34.44C128.443 35.3067 127.823 35.98 126.983 36.46C126.143 36.9267 125.156 37.16 124.023 37.16ZM137.239 37V34.9L137.039 34.44V30.68C137.039 30.0133 136.833 29.4933 136.419 29.12C136.019 28.7467 135.399 28.56 134.559 28.56C133.986 28.56 133.419 28.6533 132.859 28.84C132.313 29.0133 131.846 29.2533 131.459 29.56L130.339 27.38C130.926 26.9667 131.633 26.6467 132.459 26.42C133.286 26.1933 134.126 26.08 134.979 26.08C136.619 26.08 137.893 26.4667 138.799 27.24C139.706 28.0133 140.159 29.22 140.159 30.86V37H137.239ZM133.959 37.16C133.119 37.16 132.399 37.02 131.799 36.74C131.199 36.4467 130.739 36.0533 130.419 35.56C130.099 35.0667 129.939 34.5133 129.939 33.9C129.939 33.26 130.093 32.7 130.399 32.22C130.719 31.74 131.219 31.3667 131.899 31.1C132.579 30.82 133.466 30.68 134.559 30.68H137.419V32.5H134.899C134.166 32.5 133.659 32.62 133.379 32.86C133.113 33.1 132.979 33.4 132.979 33.76C132.979 34.16 133.133 34.48 133.439 34.72C133.759 34.9467 134.193 35.06 134.739 35.06C135.259 35.06 135.726 34.94 136.139 34.7C136.553 34.4467 136.853 34.08 137.039 33.6L137.519 35.04C137.293 35.7333 136.879 36.26 136.279 36.62C135.679 36.98 134.906 37.16 133.959 37.16ZM158.467 23H161.707V37H158.467V23ZM152.107 37H148.867V23H152.107V37ZM158.707 31.26H151.867V28.52H158.707V31.26ZM169.919 37.16C168.773 37.16 167.753 36.92 166.859 36.44C165.979 35.96 165.279 35.3067 164.759 34.48C164.253 33.64 163.999 32.6867 163.999 31.62C163.999 30.54 164.253 29.5867 164.759 28.76C165.279 27.92 165.979 27.2667 166.859 26.8C167.753 26.32 168.773 26.08 169.919 26.08C171.053 26.08 172.066 26.32 172.959 26.8C173.853 27.2667 174.553 27.9133 175.059 28.74C175.566 29.5667 175.819 30.5267 175.819 31.62C175.819 32.6867 175.566 33.64 175.059 34.48C174.553 35.3067 173.853 35.96 172.959 36.44C172.066 36.92 171.053 37.16 169.919 37.16ZM169.919 34.6C170.439 34.6 170.906 34.48 171.319 34.24C171.733 34 172.059 33.66 172.299 33.22C172.539 32.7667 172.659 32.2333 172.659 31.62C172.659 30.9933 172.539 30.46 172.299 30.02C172.059 29.58 171.733 29.24 171.319 29C170.906 28.76 170.439 28.64 169.919 28.64C169.399 28.64 168.933 28.76 168.519 29C168.106 29.24 167.773 29.58 167.519 30.02C167.279 30.46 167.159 30.9933 167.159 31.62C167.159 32.2333 167.279 32.7667 167.519 33.22C167.773 33.66 168.106 34 168.519 34.24C168.933 34.48 169.399 34.6 169.919 34.6ZM182.445 37.16C181.552 37.16 180.752 36.9867 180.045 36.64C179.352 36.2933 178.812 35.7667 178.425 35.06C178.038 34.34 177.845 33.4267 177.845 32.32V26.24H180.965V31.86C180.965 32.7533 181.152 33.4133 181.525 33.84C181.912 34.2533 182.452 34.46 183.145 34.46C183.625 34.46 184.052 34.36 184.425 34.16C184.798 33.9467 185.092 33.6267 185.305 33.2C185.518 32.76 185.625 32.2133 185.625 31.56V26.24H188.745V37H185.785V34.04L186.325 34.9C185.965 35.6467 185.432 36.2133 184.725 36.6C184.032 36.9733 183.272 37.16 182.445 37.16ZM195.255 37.16C194.335 37.16 193.449 37.0533 192.595 36.84C191.755 36.6133 191.089 36.3333 190.595 36L191.635 33.76C192.129 34.0667 192.709 34.32 193.375 34.52C194.055 34.7067 194.722 34.8 195.375 34.8C196.095 34.8 196.602 34.7133 196.895 34.54C197.202 34.3667 197.355 34.1267 197.355 33.82C197.355 33.5667 197.235 33.38 196.995 33.26C196.769 33.1267 196.462 33.0267 196.075 32.96C195.689 32.8933 195.262 32.8267 194.795 32.76C194.342 32.6933 193.882 32.6067 193.415 32.5C192.949 32.38 192.522 32.2067 192.135 31.98C191.749 31.7533 191.435 31.4467 191.195 31.06C190.969 30.6733 190.855 30.1733 190.855 29.56C190.855 28.88 191.049 28.28 191.435 27.76C191.835 27.24 192.409 26.8333 193.155 26.54C193.902 26.2333 194.795 26.08 195.835 26.08C196.569 26.08 197.315 26.16 198.075 26.32C198.835 26.48 199.469 26.7133 199.975 27.02L198.935 29.24C198.415 28.9333 197.889 28.7267 197.355 28.62C196.835 28.5 196.329 28.44 195.835 28.44C195.142 28.44 194.635 28.5333 194.315 28.72C193.995 28.9067 193.835 29.1467 193.835 29.44C193.835 29.7067 193.949 29.9067 194.175 30.04C194.415 30.1733 194.729 30.28 195.115 30.36C195.502 30.44 195.922 30.5133 196.375 30.58C196.842 30.6333 197.309 30.72 197.775 30.84C198.242 30.96 198.662 31.1333 199.035 31.36C199.422 31.5733 199.735 31.8733 199.975 32.26C200.215 32.6333 200.335 33.1267 200.335 33.74C200.335 34.4067 200.135 35 199.735 35.52C199.335 36.0267 198.755 36.4267 197.995 36.72C197.249 37.0133 196.335 37.16 195.255 37.16ZM207.6 37.16C206.374 37.16 205.294 36.92 204.36 36.44C203.44 35.96 202.727 35.3067 202.22 34.48C201.714 33.64 201.46 32.6867 201.46 31.62C201.46 30.54 201.707 29.5867 202.2 28.76C202.707 27.92 203.394 27.2667 204.26 26.8C205.127 26.32 206.107 26.08 207.2 26.08C208.254 26.08 209.2 26.3067 210.04 26.76C210.894 27.2 211.567 27.84 212.06 28.68C212.554 29.5067 212.8 30.5 212.8 31.66C212.8 31.78 212.794 31.92 212.78 32.08C212.767 32.2267 212.754 32.3667 212.74 32.5H204V30.68H211.1L209.9 31.22C209.9 30.66 209.787 30.1733 209.56 29.76C209.334 29.3467 209.02 29.0267 208.62 28.8C208.22 28.56 207.754 28.44 207.22 28.44C206.687 28.44 206.214 28.56 205.8 28.8C205.4 29.0267 205.087 29.3533 204.86 29.78C204.634 30.1933 204.52 30.6867 204.52 31.26V31.74C204.52 32.3267 204.647 32.8467 204.9 33.3C205.167 33.74 205.534 34.08 206 34.32C206.48 34.5467 207.04 34.66 207.68 34.66C208.254 34.66 208.754 34.5733 209.18 34.4C209.62 34.2267 210.02 33.9667 210.38 33.62L212.04 35.42C211.547 35.98 210.927 36.4133 210.18 36.72C209.434 37.0133 208.574 37.16 207.6 37.16Z" fill="white"/>
</svg>
