<svg width="33" height="31" viewBox="0 0 33 31" fill="none" xmlns="http://www.w3.org/2000/svg">
<path d="M24.1518 0H8.06152C3.6163 0 0 3.6163 0 8.06152V22.7818C0 27.227 3.6163 30.8433 8.06152 30.8433H24.1518C28.597 30.8433 32.2133 27.227 32.2133 22.7818V8.06152C32.2133 3.6163 28.597 0 24.1518 0ZM2.84385 8.06152C2.84385 5.18488 5.18488 2.84385 8.06152 2.84385H24.1518C27.0284 2.84385 29.3695 5.18488 29.3695 8.06152V22.7818C29.3695 25.6584 27.0284 27.9994 24.1518 27.9994H8.06152C5.18488 27.9994 2.84385 25.6584 2.84385 22.7818V8.06152Z" fill="white"/>
<path d="M16.0982 22.919C20.2319 22.919 23.5968 19.556 23.5968 15.4205C23.5968 11.2849 20.2337 7.92188 16.0982 7.92188C11.9627 7.92188 8.59961 11.2849 8.59961 15.4205C8.59961 19.556 11.9627 22.919 16.0982 22.919ZM16.0982 10.7675C18.6651 10.7675 20.7529 12.8553 20.7529 15.4223C20.7529 17.9892 18.6651 20.077 16.0982 20.077C13.5313 20.077 11.4435 17.9892 11.4435 15.4223C11.4435 12.8553 13.5313 10.7675 16.0982 10.7675Z" fill="white"/>
<path d="M24.2958 9.13746C25.4089 9.13746 26.3162 8.23202 26.3162 7.11707C26.3162 6.00212 25.4107 5.09668 24.2958 5.09668C23.1808 5.09668 22.2754 6.00212 22.2754 7.11707C22.2754 8.23202 23.1808 9.13746 24.2958 9.13746Z" fill="white"/>
</svg>
