<svg width="26" height="26" viewBox="0 0 26 26" fill="none" xmlns="http://www.w3.org/2000/svg">
<path d="M19.0938 13H18.2812V15.4375H19.0938V13Z" fill="#F8730C"/>
<path d="M5.6875 15.4375H12.2688L9.83125 13H5.6875V15.4375Z" fill="#F8730C"/>
<path d="M18.5098 3.05195C18.4922 3.04293 18.4752 3.03275 18.459 3.02148C17.8992 2.7215 17.3148 2.47006 16.7121 2.26992L16.4379 2.17852C15.3273 1.81803 14.1676 1.63132 13 1.625C6.71836 1.625 1.625 6.71836 1.625 13C1.62448 15.0297 2.16776 17.0225 3.19835 18.7711C4.22894 20.5197 5.70919 21.9603 7.48516 22.943C7.50547 22.9531 7.5207 22.9684 7.54102 22.9785C8.10076 23.2785 8.68519 23.5299 9.28789 23.7301L9.56211 23.8215C10.6726 24.1824 11.8323 24.3691 13 24.375C19.2816 24.375 24.375 19.2816 24.375 13C24.3757 10.969 23.8319 8.97489 22.8004 7.22531C21.7689 5.47573 20.2873 4.03461 18.5098 3.05195ZM13 21.6531C12.537 21.6515 12.0749 21.6107 11.6188 21.5312C11.1265 21.4497 10.6423 21.3257 10.1715 21.1605C10.075 21.1301 9.97852 21.0996 9.88711 21.0641C9.55647 20.9393 9.23419 20.7934 8.92227 20.6273C7.53966 19.8891 6.38364 18.789 5.57776 17.4447C4.77188 16.1003 4.34643 14.5623 4.34688 12.9949C4.34688 11.1059 4.97656 9.36914 6.00742 7.94727L18.0527 19.9926C16.6258 21.0234 14.8891 21.6531 13 21.6531ZM19.9977 18.0477L7.95234 6.00234C9.37422 4.97656 11.1059 4.34687 13 4.34687C13.463 4.34875 13.9251 4.38951 14.3813 4.46875C14.8735 4.5503 15.3577 4.67433 15.8285 4.83945C15.9199 4.86992 16.0164 4.90039 16.1129 4.93594C16.4257 5.05434 16.7309 5.1917 17.027 5.34727C18.4241 6.07972 19.5942 7.18047 20.4105 8.5303C21.2269 9.88013 21.6583 11.4276 21.6582 13.0051C21.6531 14.8941 21.0234 16.6258 19.9977 18.0477Z" fill="#F8730C"/>
<path d="M17.875 13H16.1484L17.875 14.7266V13Z" fill="#F8730C"/>
<path d="M20.3125 13H19.5V15.4375H20.3125V13Z" fill="#F8730C"/>
<path d="M18.2863 10.8011C17.8395 10.5929 17.1691 10.5116 15.9707 10.5116H15.7879C15.143 10.5167 14.9805 10.5065 14.7723 10.2019C14.6301 9.98857 14.7215 9.45029 14.9602 9.08975C15.0009 9.02865 15.0242 8.95767 15.0278 8.88435C15.0314 8.81103 15.015 8.73811 14.9805 8.67334C14.9454 8.6091 14.8942 8.55514 14.8318 8.51683C14.7694 8.47853 14.6982 8.4572 14.625 8.45498C14.306 8.44389 13.9915 8.37685 13.6957 8.25693C13.1574 8.02842 12.9035 7.64248 12.9035 7.08389C12.9035 5.77373 14.0105 5.67725 14.0613 5.67725V4.86475C13.452 4.86475 12.091 5.42334 12.091 7.08389C12.091 7.97256 12.548 8.65811 13.3961 9.01357C13.593 9.09353 13.7971 9.15474 14.0055 9.19639C13.8379 9.69404 13.8227 10.2577 14.0918 10.6538C14.5488 11.3292 15.1227 11.3241 15.7828 11.319H15.9605C17.2961 11.319 17.7176 11.4358 17.9359 11.5374C18.2254 11.6694 18.2813 11.9183 18.2711 12.3347V12.3854H19.0836V12.3347C19.0836 11.9741 19.0988 11.1769 18.2863 10.8011Z" fill="#F8730C"/>
<path d="M20.3125 12.3904C20.3125 11.0854 20.1602 10.3998 19.8504 9.87168C19.4137 9.14043 18.7129 8.73418 17.875 8.73418H16.9914C17.1387 8.3127 17.2656 7.72871 17.1691 7.16504C17.0066 6.21035 16.1992 5.6416 14.9805 5.6416V6.4541C16.0469 6.4541 16.3059 6.91621 16.3719 7.30215C16.4988 8.03848 16.0266 8.93223 16.0215 8.94238C15.9875 9.00397 15.9702 9.07332 15.971 9.14364C15.9719 9.21396 15.9911 9.28284 16.0266 9.34355C16.063 9.40395 16.1143 9.45392 16.1757 9.48862C16.2371 9.52332 16.3064 9.54157 16.377 9.5416H17.875C18.4285 9.5416 18.8602 9.79043 19.1496 10.283C19.307 10.5521 19.5 10.9686 19.5 12.3854H20.3125V12.3904Z" fill="#F8730C"/>
</svg>
