<svg width="24" height="24" viewBox="0 0 24 24" fill="none" xmlns="http://www.w3.org/2000/svg">
<path d="M21.4286 16.6071C21.4286 16.8482 21.3839 17.1629 21.2946 17.5513C21.2053 17.9397 21.1116 18.2455 21.0134 18.4688C20.8259 18.9152 20.2812 19.3884 19.3794 19.8884C18.5402 20.3438 17.7098 20.5714 16.8884 20.5714C16.6473 20.5714 16.4129 20.5558 16.1853 20.5246C15.9576 20.4933 15.7009 20.4375 15.4152 20.3571C15.1294 20.2768 14.9174 20.2121 14.779 20.1629C14.6406 20.1138 14.3928 20.0223 14.0357 19.8884C13.6786 19.7545 13.4598 19.6741 13.3794 19.6473C12.5044 19.3348 11.7232 18.9643 11.0357 18.5357C9.89284 17.8304 8.71204 16.8683 7.49329 15.6496C6.27454 14.4308 5.31248 13.25 4.60713 12.1071C4.17855 11.4196 3.80802 10.6384 3.49552 9.76339C3.46873 9.68304 3.38838 9.46429 3.25445 9.10714C3.12052 8.75 3.029 8.50223 2.97989 8.36384C2.93079 8.22545 2.86605 8.01339 2.7857 7.72768C2.70534 7.44197 2.64954 7.18527 2.61829 6.95759C2.58704 6.72991 2.57141 6.49554 2.57141 6.25447C2.57141 5.43304 2.79909 4.60268 3.25445 3.76339C3.75445 2.86161 4.22766 2.31697 4.67409 2.12947C4.8973 2.03125 5.20311 1.9375 5.5915 1.84822C5.97989 1.75893 6.29463 1.71429 6.5357 1.71429C6.6607 1.71429 6.75445 1.72768 6.81695 1.75447C6.97766 1.80804 7.21427 2.14732 7.52677 2.77232C7.62498 2.94197 7.75891 3.18304 7.92855 3.49554C8.0982 3.80804 8.25445 4.09152 8.3973 4.34598C8.54016 4.60045 8.67855 4.83929 8.81248 5.0625C8.83927 5.09822 8.91739 5.20982 9.04686 5.39732C9.17632 5.58482 9.2723 5.7433 9.3348 5.87277C9.3973 6.00223 9.42855 6.12947 9.42855 6.25447C9.42855 6.43304 9.30132 6.65625 9.04686 6.92411C8.79239 7.19197 8.51561 7.4375 8.2165 7.66072C7.91739 7.88393 7.64061 8.12054 7.38614 8.37054C7.13168 8.62054 7.00445 8.82589 7.00445 8.98661C7.00445 9.06697 7.02677 9.16741 7.07141 9.28795C7.11605 9.40848 7.154 9.5 7.18525 9.5625C7.2165 9.625 7.279 9.73214 7.37275 9.88393C7.4665 10.0357 7.51784 10.1205 7.52677 10.1384C8.20534 11.3616 8.98213 12.4107 9.85713 13.2857C10.7321 14.1607 11.7812 14.9375 13.0044 15.6161C13.0223 15.625 13.1071 15.6763 13.2589 15.7701C13.4107 15.8638 13.5178 15.9263 13.5803 15.9576C13.6428 15.9888 13.7344 16.0268 13.8549 16.0714C13.9754 16.1161 14.0759 16.1384 14.1562 16.1384C14.3169 16.1384 14.5223 16.0112 14.7723 15.7567C15.0223 15.5022 15.2589 15.2254 15.4821 14.9263C15.7053 14.6272 15.9509 14.3504 16.2187 14.096C16.4866 13.8415 16.7098 13.7143 16.8884 13.7143C17.0134 13.7143 17.1406 13.7455 17.2701 13.808C17.3995 13.8705 17.558 13.9665 17.7455 14.096C17.933 14.2254 18.0446 14.3036 18.0803 14.3304C18.3036 14.4643 18.5424 14.6027 18.7969 14.7455C19.0513 14.8884 19.3348 15.0446 19.6473 15.2143C19.9598 15.3839 20.2009 15.5179 20.3705 15.6161C20.9955 15.9286 21.3348 16.1652 21.3884 16.3259C21.4152 16.3884 21.4286 16.4821 21.4286 16.6071Z" fill="white"/>
</svg>
