<svg width="24" height="24" viewBox="0 0 24 24" fill="none" xmlns="http://www.w3.org/2000/svg">
<path d="M19.5 20.25L3 3.75" stroke="#F8730C" stroke-width="2" stroke-miterlimit="10" stroke-linecap="round"/>
<path d="M11.4061 4.63425C11.2189 4.53331 11.0069 4.48772 10.7949 4.50283C10.5828 4.51794 10.3794 4.59311 10.2084 4.71957L10.1775 4.74347L8.84061 5.838C8.80006 5.87118 8.7669 5.9125 8.74329 5.95928C8.71968 6.00606 8.70613 6.05727 8.70353 6.1096C8.70092 6.16194 8.70931 6.21424 8.72816 6.26313C8.74701 6.31203 8.7759 6.35643 8.81296 6.39347L11.3597 8.94019C11.4121 8.9927 11.479 9.02846 11.5517 9.04295C11.6245 9.05745 11.7 9.05002 11.7685 9.02161C11.8371 8.99321 11.8957 8.9451 11.9369 8.88337C11.9781 8.82165 12 8.74909 12 8.67488V5.65191C12.0021 5.44447 11.948 5.24032 11.8434 5.06115C11.7389 4.88198 11.5877 4.73446 11.4061 4.63425Z" fill="#F8730C"/>
<path d="M11.7811 15.7167L4.53234 8.46984C4.39176 8.32917 4.20106 8.25009 4.00219 8.25H2.625C2.32663 8.25 2.04048 8.36853 1.8295 8.5795C1.61853 8.79048 1.5 9.07663 1.5 9.375V14.625C1.5 14.9234 1.61853 15.2095 1.8295 15.4205C2.04048 15.6315 2.32663 15.75 2.625 15.75H5.895L10.2075 19.2802C10.3806 19.4086 10.5871 19.4844 10.8022 19.4985C11.0172 19.5125 11.2318 19.4642 11.4202 19.3594C11.5981 19.258 11.7456 19.1108 11.8476 18.9332C11.9495 18.7556 12.0021 18.554 12 18.3492V16.2464C12 16.0478 11.9213 15.8573 11.7811 15.7167Z" fill="#F8730C"/>
<path d="M16.5 11.9999C16.5 10.8487 16.2277 9.75601 15.668 8.65914C15.6236 8.57073 15.5622 8.49198 15.4872 8.42741C15.4123 8.36284 15.3253 8.31373 15.2313 8.28292C15.1373 8.25211 15.0381 8.24019 14.9395 8.24786C14.8409 8.25554 14.7448 8.28264 14.6567 8.32762C14.5686 8.3726 14.4902 8.43456 14.4262 8.50994C14.3621 8.58533 14.3136 8.67263 14.2834 8.76684C14.2532 8.86105 14.242 8.96029 14.2504 9.05886C14.2587 9.15743 14.2865 9.25338 14.332 9.34117C14.7816 10.2215 15 11.0915 15 11.9999C15 12.1249 14.9952 12.252 14.9855 12.381C14.9815 12.4348 14.9891 12.4888 15.0079 12.5394C15.0266 12.5899 15.0561 12.6358 15.0942 12.674L15.7673 13.3471C15.816 13.3958 15.8771 13.4302 15.9439 13.4466C16.0108 13.4629 16.0809 13.4605 16.1465 13.4396C16.2121 13.4187 16.2707 13.3802 16.3158 13.3283C16.361 13.2763 16.391 13.2129 16.4025 13.1451C16.4671 12.7668 16.4997 12.3837 16.5 11.9999Z" fill="#F8730C"/>
<path d="M19.5 11.9998C19.5 9.60075 18.8869 8.06747 17.8978 6.372C17.7962 6.20296 17.6322 6.08073 17.4411 6.03178C17.2501 5.98282 17.0475 6.01108 16.8771 6.11043C16.7067 6.20979 16.5824 6.37224 16.5309 6.56262C16.4795 6.753 16.5051 6.95598 16.6022 7.12762C17.4876 8.64543 18 9.92934 18 11.9998C18 13.1168 17.8458 14.0098 17.5608 14.8428C17.5379 14.9092 17.5341 14.9807 17.5498 15.0491C17.5656 15.1176 17.6002 15.1802 17.6498 15.23L18.2344 15.8154C18.2786 15.8597 18.3331 15.8922 18.3931 15.9099C18.453 15.9277 18.5165 15.9302 18.5776 15.9172C18.6388 15.9042 18.6957 15.8761 18.7433 15.8355C18.7908 15.7949 18.8275 15.743 18.8498 15.6847C19.2656 14.6136 19.5 13.4651 19.5 11.9998Z" fill="#F8730C"/>
<path d="M22.5 12.0001C22.5 8.51961 21.5536 6.32304 20.1323 4.09648C20.0253 3.92865 19.856 3.81021 19.6616 3.76722C19.4672 3.72424 19.2638 3.76022 19.0959 3.86726C18.9281 3.9743 18.8097 4.14363 18.7667 4.33799C18.7237 4.53236 18.7597 4.73584 18.8667 4.90367C20.1478 6.90851 21 8.88289 21 12.0001C21 14.1652 20.6048 15.7627 19.9486 17.1812C19.9164 17.2507 19.9064 17.3284 19.9197 17.4038C19.933 17.4792 19.9691 17.5487 20.0231 17.603L20.5819 18.1618C20.6241 18.2047 20.6761 18.2369 20.7334 18.2555C20.7907 18.2741 20.8516 18.2786 20.911 18.2687C20.9704 18.2587 21.0266 18.2346 21.0747 18.1984C21.1228 18.1622 21.1615 18.1149 21.1875 18.0605C22.1062 16.1673 22.5 14.2969 22.5 12.0001Z" fill="#F8730C"/>
</svg>
