<svg width="20" height="20" viewBox="0 0 20 20" fill="none" xmlns="http://www.w3.org/2000/svg">
<g clip-path="url(#clip0_800_1324)">
<path d="M10.4897 16.8622C10.1881 16.6715 9.81 16.6715 9.50846 16.8622L4.88369 19.7872C4.16686 20.2406 3.2807 19.5698 3.47118 18.718L4.69728 13.2351C4.77693 12.8789 4.66143 12.5059 4.3971 12.2657L0.326263 8.56652C-0.304304 7.99351 0.0346789 6.91121 0.867837 6.83738L6.2326 6.362C6.58195 6.33105 6.88629 6.10114 7.02355 5.7645L9.12895 0.601047C9.45572 -0.20035 10.5443 -0.200348 10.8711 0.601048L12.9764 5.7645C13.1137 6.10114 13.4181 6.33105 13.7674 6.362L19.1322 6.83738C19.9653 6.91121 20.3043 7.99351 19.6737 8.56651L15.6029 12.2657C15.3386 12.5059 15.2231 12.8789 15.3027 13.2351L16.5289 18.7184C16.7194 19.5701 15.8333 20.2409 15.1165 19.7876L10.4897 16.8622Z" fill="#FFC500"/>
</g>
<defs>
<clipPath id="clip0_800_1324">
<rect width="20" height="20" fill="white"/>
</clipPath>
</defs>
</svg>
