<svg width="32" height="27" viewBox="0 0 32 27" fill="none" xmlns="http://www.w3.org/2000/svg">
<path d="M0.833677 11.9707C0.90655 11.9342 0.979456 11.8996 1.05051 11.8668C2.2857 11.2948 3.53728 10.7592 4.78705 10.2235C4.85446 10.2235 4.96738 10.1452 5.03114 10.1197C5.1277 10.0778 5.22427 10.0377 5.32083 9.99582L5.87649 9.75716C6.24814 9.59866 6.61794 9.44017 6.98959 9.28167C7.73107 8.96467 8.47254 8.64768 9.21402 8.32886C10.697 7.69487 12.1818 7.05906 13.6647 6.42507C15.1477 5.79108 16.6325 5.15526 18.1154 4.52127C19.5984 3.88728 21.0831 3.25147 22.5661 2.61748C24.0491 1.98349 25.5339 1.34767 27.0168 0.713684C27.3466 0.571583 27.7036 0.360253 28.0571 0.298311C28.354 0.245478 28.6437 0.143458 28.9424 0.0869814C29.509 -0.0205055 30.1339 -0.0642292 30.6768 0.170785C30.8645 0.252766 31.0375 0.36754 31.1815 0.511463C31.8701 1.19282 31.7735 2.31141 31.6278 3.26969C30.613 9.94845 29.5983 16.629 28.5817 23.3078C28.4433 24.2242 28.2538 25.2298 27.5305 25.8092C26.9184 26.2992 26.0476 26.3539 25.2915 26.1462C24.5355 25.9367 23.8687 25.4976 23.2147 25.0659C20.502 23.2695 17.7875 21.4732 15.0748 19.6769C14.4299 19.2506 13.7121 18.6932 13.7194 17.9189C13.7231 17.4525 14.0018 17.0371 14.286 16.6673C16.6434 13.5921 20.0447 11.4788 22.5752 8.54566C22.9323 8.13211 23.2129 7.38516 22.7228 7.14651C22.4313 7.0044 22.0961 7.19752 21.8301 7.38152C18.4852 9.70433 15.1422 12.029 11.7974 14.3518C10.7061 15.1096 9.56202 15.8894 8.24667 16.0752C7.06978 16.2428 5.88561 15.9149 4.74697 15.5797C3.79234 15.2991 2.8395 15.0113 1.89034 14.7143C1.3857 14.5576 0.864654 14.3882 0.474785 14.033C0.0849173 13.6777 -0.139136 13.0801 0.0958784 12.6065C0.243445 12.3095 0.529475 12.1219 0.830075 11.9688L0.833677 11.9707Z" fill="#FEFFFC"/>
</svg>
