<svg width="27" height="33" viewBox="0 0 27 33" fill="none" xmlns="http://www.w3.org/2000/svg">
<path d="M26.3695 10.8935V15.8033C25.5115 15.7195 24.3965 15.5245 23.1632 15.0727C21.5527 14.4824 20.3539 13.6754 19.5687 13.0505V22.9739L19.5487 22.9429C19.5614 23.1397 19.5687 23.3401 19.5687 23.5423C19.5687 28.4703 15.5589 32.482 10.6291 32.482C5.69926 32.482 1.68945 28.4703 1.68945 23.5423C1.68945 18.6143 5.69926 14.6009 10.6291 14.6009C11.1119 14.6009 11.5855 14.6391 12.0483 14.7138V19.5526C11.6038 19.3941 11.1264 19.3084 10.6291 19.3084C8.29534 19.3084 6.3952 21.2068 6.3952 23.5423C6.3952 25.8779 8.29534 27.7762 10.6291 27.7762C12.9628 27.7762 14.863 25.8761 14.863 23.5423C14.863 23.4549 14.8612 23.3674 14.8557 23.28V3.99609H19.7618C19.78 4.41147 19.7965 4.83048 19.8147 5.24586C19.8475 6.06385 20.139 6.84905 20.6472 7.49215C21.243 8.24821 22.1229 9.12632 23.3581 9.82772C24.5149 10.4836 25.6007 10.7641 26.3695 10.8971V10.8935Z" fill="#FF004F"/>
<path d="M24.6801 6.90103V11.8108C23.822 11.727 22.7071 11.5321 21.4737 11.0803C19.8632 10.49 18.6645 9.68293 17.8793 9.05805V18.9815L17.8592 18.9505C17.872 19.1472 17.8793 19.3476 17.8793 19.5499C17.8793 24.4779 13.8695 28.4895 8.93963 28.4895C4.00981 28.4895 0 24.4779 0 19.5499C0 14.6219 4.00981 10.6084 8.93963 10.6084C9.42241 10.6084 9.89608 10.6467 10.3588 10.7214V15.5601C9.9143 15.4016 9.43699 15.316 8.93963 15.316C6.60589 15.316 4.70573 17.2143 4.70573 19.5499C4.70573 21.8854 6.60589 23.7838 8.93963 23.7838C11.2734 23.7838 13.1735 21.8836 13.1735 19.5499C13.1735 19.4624 13.1717 19.375 13.1662 19.2875V0H18.0724C18.0906 0.415373 18.107 0.83439 18.1252 1.24976C18.158 2.06776 18.4495 2.85296 18.9578 3.49606C19.5535 4.25211 20.4334 5.13022 21.6686 5.83162C22.8255 6.48565 23.9113 6.76803 24.6801 6.90103Z" fill="#00F7EF"/>
<path d="M25.7475 9.05168V13.9615C24.8894 13.8777 23.7744 13.6827 22.5411 13.2309C20.9306 12.6407 19.7318 11.8336 18.9466 11.2087V21.1321L18.9266 21.1012C18.9394 21.2979 18.9466 21.4983 18.9466 21.7005C18.9466 26.6285 14.9368 30.6402 10.007 30.6402C5.07719 30.6402 1.06738 26.6285 1.06738 21.7005C1.06738 16.7725 5.07719 12.7591 10.007 12.7591C10.4898 12.7591 10.9635 12.7973 11.4262 12.872V17.7108C10.9817 17.5523 10.5044 17.4666 10.007 17.4666C7.67327 17.4666 5.77313 19.365 5.77313 21.7005C5.77313 24.0361 7.67327 25.9344 10.007 25.9344C12.3408 25.9344 14.2409 24.0343 14.2409 21.7005C14.2409 21.6131 14.2391 21.5256 14.2336 21.4382V2.1543H19.1398C19.158 2.56967 19.1744 2.98869 19.1926 3.40406C19.2254 4.22205 19.5169 5.00726 20.0252 5.65036C20.6209 6.40641 21.5008 7.28452 22.736 7.98592C23.8929 8.63995 24.9787 8.92233 25.7475 9.05532V9.05168Z" fill="white"/>
</svg>
