<svg width="28" height="28" viewBox="0 0 28 28" fill="none" xmlns="http://www.w3.org/2000/svg">
<g clip-path="url(#clip0_800_1052)">
<path d="M15.1667 15.1667C17.744 15.1667 19.8334 17.256 19.8334 19.8333V21.5833C19.8334 22.5498 19.0498 23.3333 18.0834 23.3333H4.08337C3.11687 23.3333 2.33337 22.5498 2.33337 21.5833V19.8333C2.33337 17.256 4.42271 15.1667 7.00004 15.1667H15.1667ZM22.1667 15.1669C24.0998 15.1669 25.6667 16.734 25.6667 18.6669V20.4169C25.6667 21.3835 24.8832 22.1669 23.9167 22.1669H22.1667V19.8333C22.1667 17.9252 21.2506 16.2312 19.8343 15.1669H22.1667ZM11.0834 3.5C13.9829 3.5 16.3334 5.85051 16.3334 8.75C16.3334 11.6495 13.9829 14 11.0834 14C8.18388 14 5.83337 11.6495 5.83337 8.75C5.83337 5.85051 8.18388 3.5 11.0834 3.5ZM21 7C22.9331 7 24.5 8.56701 24.5 10.5C24.5 12.433 22.9331 14 21 14C19.067 14 17.5 12.433 17.5 10.5C17.5 8.56701 19.067 7 21 7Z" fill="white"/>
</g>
<defs>
<clipPath id="clip0_800_1052">
<rect width="28" height="28" fill="white"/>
</clipPath>
</defs>
</svg>
