<svg width="34" height="24" viewBox="0 0 34 24" fill="none" xmlns="http://www.w3.org/2000/svg">
<path d="M27.6934 23.1334C26.9187 23.2175 26.1258 23.2321 25.3658 23.2303C19.4372 23.2248 13.5085 23.2193 7.58175 23.2157C5.71639 23.2157 3.68477 23.1554 2.24327 21.9696C0.619064 20.6305 0.281077 18.3083 0.149533 16.2073C-0.0331669 13.3279 -0.0477847 10.4395 0.102029 7.55829C0.184244 5.97611 0.328572 4.35556 1.01004 2.9232C1.49968 1.8946 2.31635 0.970136 3.36139 0.484154C4.57634 -0.0803876 5.84794 0.0200981 7.15607 0.0182711C10.2875 0.0146171 13.419 0.0127895 16.5505 0.00913554C19.8062 0.00548155 23.0637 0.00365399 26.3195 0C27.8578 0 29.5094 0.0310591 30.7646 0.920807C32.3851 2.06816 32.8254 4.25142 33.0282 6.22641C33.4027 9.86396 33.4082 13.5399 33.0428 17.1774C32.8912 18.6774 32.639 20.2632 31.6506 21.4014C30.6714 22.5305 29.2189 22.9654 27.6952 23.1316L27.6934 23.1334Z" fill="white"/>
<path d="M21.9565 11.6234L13.1211 6.52246V16.7244L21.9565 11.6234Z" fill="#F26A07"/>
</svg>
